<?xml version="1.0" encoding="utf-8"?>
<!-- Generator: Adobe Illustrator 16.0.3, SVG Export Plug-In . SVG Version: 6.00 Build 0)  -->
<!DOCTYPE svg PUBLIC "-//W3C//DTD SVG 1.1//EN" "http://www.w3.org/Graphics/SVG/1.1/DTD/svg11.dtd">
<svg version="1.1" id="Ebene_1" xmlns="http://www.w3.org/2000/svg" xmlns:xlink="http://www.w3.org/1999/xlink" x="0px" y="0px"
	 width="558.322px" height="80.294px" viewBox="142.123 333.007 558.322 80.294"
	 enable-background="new 142.123 333.007 558.322 80.294" xml:space="preserve">
<g id="Logo__x28_TXT_network_x29_">
	<g>
		<path d="M387.15,399.015V370.55c0-8.979,6.947-13.724,17.028-13.724c10.08,0,17.027,4.744,17.027,13.724v28.465h-10.844v-24.736
			c0-4.236-2.203-6.607-6.185-6.607c-3.982,0-6.186,2.371-6.186,6.607v24.736H387.15L387.15,399.015z"/>
		<path d="M471.431,381.563c-2.033,11.1-10.59,18.47-22.196,18.47c-12.792,0-20.84-9.827-20.84-21.604
			c0-11.775,8.048-21.603,20.84-21.603c11.014,0,17.283,5.93,19.994,12.199l-20.926,15.672l-5.252-6.861l10.759-8.303
			c-1.103-1.271-3.05-1.863-5.337-1.863c-5.338,0-9.234,4.828-9.234,10.759c0,5.083,3.981,10.759,10.42,10.759
			c5.422,0,9.912-3.304,10.845-8.811L471.431,381.563z"/>
		<path d="M496.409,357.842v10.506h-7.878v15.248c0,3.052,1.524,4.575,3.728,4.575h4.15v10.844h-5.676
			c-9.997,0-13.046-5.931-13.046-15.079V346.83h10.844v11.013L496.409,357.842L496.409,357.842z"/>
		<path d="M538.224,357.842v24.738c0,4.235,1.608,6.607,5.591,6.607s5.931-2.372,5.931-6.607v-24.738h11.353v27.449
			c0,9.996-7.455,14.74-15.588,14.74c-5.083,0-9.488-2.033-13.301-6.947c-3.136,4.914-7.539,6.947-12.623,6.947
			c-8.134,0-15.589-4.744-15.589-14.74v-27.449h11.354v24.738c0,4.235,1.948,6.607,5.931,6.607c3.981,0,5.592-2.372,5.592-6.607
			v-24.738H538.224z"/>
		<path d="M610.328,378.429c0,11.775-8.049,21.604-20.841,21.604s-20.841-9.827-20.841-21.604c0-11.775,8.049-21.603,20.841-21.603
			S610.328,366.652,610.328,378.429z M579.49,378.429c0,6.862,3.982,10.759,9.997,10.759c6.016,0,9.997-3.896,9.997-10.759
			c0-6.862-3.981-10.759-9.997-10.759C583.472,367.67,579.49,371.566,579.49,378.429z"/>
		<path d="M617.939,399.015v-41.173h10.25v7.795h0.17c1.863-5.338,5.846-8.303,10.42-8.303h2.287v11.521h-2.626
			c-5.422,0-8.979,3.728-8.979,9.995v20.163L617.939,399.015L617.939,399.015z"/>
		<path d="M647.49,399.015v-59.302h10.845v32.023h3.135c1.778,0,3.643-1.44,4.913-4.321l4.235-9.573h12.114l-4.32,9.573
			c-2.456,5.337-3.643,7.032-6.861,7.71v0.254c8.133,1.439,10.335,5.422,10.335,13.216v10.42h-10.844v-9.487
			c0-5.422-2.371-7.286-6.522-7.286h-6.185v16.773H647.49L647.49,399.015z"/>
	</g>
</g>
<g id="Logo__x28_TXT_noris_x29_">
	<g>
		<path d="M229.913,367.67c-6.015,0-9.997,3.896-9.997,10.759c0,6.863,3.981,10.76,9.997,10.76c6.017,0,9.997-3.896,9.997-10.76
			C239.91,371.566,235.928,367.67,229.913,367.67z M142.123,333.007v80.294h219.753v-80.294H142.123z M201.207,399.015h-10.844
			v-24.736c0-4.237-2.203-6.607-6.185-6.607s-6.186,2.371-6.186,6.607v24.736H167.15V370.55c0-8.979,6.947-13.724,17.028-13.724
			c10.08,0,17.027,4.744,17.027,13.724L201.207,399.015L201.207,399.015z M229.913,400.031c-12.792,0-20.84-9.827-20.84-21.604
			c0-11.775,8.048-21.603,20.84-21.603s20.84,9.826,20.84,21.603S242.705,400.031,229.913,400.031z M280.492,368.855h-2.626
			c-5.422,0-8.979,3.728-8.979,9.995v20.163h-11.521v-41.173h10.25v7.795h0.17c1.863-5.338,5.845-8.303,10.42-8.303h2.287V368.855z
			 M298.506,399.015h-10.844v-41.173h10.844V399.015z M293.084,352.42c-3.643,0-5.438-1.456-5.438-5.861
			c0-4.404,1.795-5.861,5.438-5.861c3.644,0,5.438,1.457,5.438,5.861C298.522,350.964,296.727,352.42,293.084,352.42z
			 M322.6,399.015h-15.165v-10.166h13.979c2.033,0,3.05-1.017,3.05-2.286c0-5.169-16.604-6.354-16.604-16.604
			c0-8.896,6.269-12.115,13.385-12.115h13.046v10.166h-12.538c-1.354,0-2.711,0.17-2.711,1.864c0,3.728,17.452,5.761,17.452,16.604
			C336.494,394.694,330.394,399.015,322.6,399.015z"/>
	</g>
</g>
</svg>
